<?xml version="1.0" encoding="utf-8"?>
<!-- Generator: Adobe Illustrator 25.0.0, SVG Export Plug-In . SVG Version: 6.00 Build 0)  -->
<svg version="1.1" id="Слой_1" xmlns="http://www.w3.org/2000/svg" xmlns:xlink="http://www.w3.org/1999/xlink" x="0px" y="0px"
	 width="145px" height="145px" viewBox="0 0 145 145" style="enable-background:new 0 0 145 145;" xml:space="preserve">
<style type="text/css">
	.st0{fill:#323232;}
	.st1{fill:#3782FF;}
</style>
<path class="st0" d="M72.5,1.5c39.1,0,71,31.9,71,71s-31.9,71-71,71s-71-31.9-71-71S33.4,1.5,72.5,1.5 M72.5,0C32.5,0,0,32.5,0,72.5
	S32.5,145,72.5,145S145,112.5,145,72.5S112.5,0,72.5,0L72.5,0z"/>
<path class="st1" d="M68.4,47.9c-1.6,0-2.9,1.3-2.9,2.9s1.3,2.9,2.9,2.9s2.9-1.3,2.9-2.9S70,47.9,68.4,47.9z M58.4,47.9
	c-1.6,0-2.9,1.3-2.9,2.9s1.3,2.9,2.9,2.9s2.9-1.3,2.9-2.9S60,47.9,58.4,47.9z M78.3,47.9c-1.6,0-2.9,1.3-2.9,2.9s1.3,2.9,2.9,2.9
	s2.9-1.3,2.9-2.9S79.9,47.9,78.3,47.9z M55.5,84.2l8.1,6.4c0.3,0.2,0.6,0.3,0.9,0.3c0.4,0,0.9-0.2,1.2-0.6c0.5-0.7,0.4-1.6-0.3-2.1
	l-6.4-5l6.6-4c0.7-0.4,0.9-1.4,0.5-2.1s-1.4-0.9-2.1-0.5l-8.4,5.2c-0.4,0.3-0.7,0.7-0.7,1.2S55.1,83.9,55.5,84.2z M70.8,94.5
	c0.1,0,0.3,0.1,0.5,0.1c0.6,0,1.2-0.4,1.4-1l7-22.6c0.2-0.8-0.2-1.6-1-1.9c-0.8-0.3-1.6,0.2-1.9,1l-7,22.6
	C69.6,93.5,70,94.3,70.8,94.5z M91.2,39H53.8c-5.7,0-10.3,4.7-10.3,10.4v46.2c0,5.8,4.6,10.4,10.3,10.4h37.3
	c5.7,0,10.3-4.7,10.3-10.4V49.4C101.6,43.7,96.9,39,91.2,39z M46.5,49.4c0-4,3.3-7.4,7.3-7.4h37.3c4,0,7.3,3.3,7.3,7.4v7.7h-52V49.4
	z M98.6,95.6c0,4-3.3,7.4-7.3,7.4H53.8c-4,0-7.3-3.3-7.3-7.4V60.2h52.1V95.6z M82.9,74.9l6.6,4l-6.3,5c-0.7,0.5-0.8,1.5-0.3,2.1
	c0.3,0.4,0.7,0.6,1.2,0.6c0.3,0,0.6-0.1,0.9-0.3l8.1-6.4c0.4-0.3,0.6-0.8,0.6-1.3s-0.3-0.9-0.7-1.2l-8.4-5.2
	c-0.7-0.4-1.6-0.2-2.1,0.5C81.9,73.5,82.2,74.5,82.9,74.9z"/>
</svg>
