<?xml version="1.0" encoding="utf-8"?>
<!-- Generator: Adobe Illustrator 25.0.0, SVG Export Plug-In . SVG Version: 6.00 Build 0)  -->
<svg version="1.1" id="Слой_1" xmlns="http://www.w3.org/2000/svg" xmlns:xlink="http://www.w3.org/1999/xlink" x="0px" y="0px"
	 width="145px" height="145px" viewBox="0 0 145 145" style="enable-background:new 0 0 145 145;" xml:space="preserve">
<style type="text/css">
	.st0{fill:#323232;}
	.st1{fill:#3782FF;}
</style>
<path class="st0" d="M72.5,1.5c39.1,0,71,31.9,71,71s-31.9,71-71,71s-71-31.9-71-71S33.4,1.5,72.5,1.5 M72.5,0C32.5,0,0,32.5,0,72.5
	S32.5,145,72.5,145S145,112.5,145,72.5S112.5,0,72.5,0L72.5,0z"/>
<path class="st1" d="M104.8,60.7c-2.6-3.6-6.6-5.7-11.1-5.7h-2.1v-4.2c0-6.3-5.1-11.4-11.3-11.4H64.8c-6.2,0-11.3,5.1-11.3,11.4v4.2
	h-2.2c-4.5,0-8.4,2.1-11.1,5.7c-2.7,3.6-3.4,8.1-2.1,12.4l7.3,23.4c1.7,5.4,6.5,9,12.2,9h29.7c5.6,0,10.5-3.6,12.2-9l7.3-23.5
	C108.2,68.8,107.4,64.3,104.8,60.7z M56.5,50.9c0-4.6,3.8-8.4,8.3-8.4h15.5c4.6,0,8.3,3.8,8.3,8.4v4.2H56.5V50.9z M104,72.1
	l-7.3,23.5c-1.3,4.2-5.1,6.9-9.3,6.9H57.6c-4.3,0-8-2.8-9.3-6.9L41,72.1c-1-3.3-0.5-6.9,1.6-9.7c2.1-2.8,5.3-4.4,8.7-4.4H55H90h3.6
	c3.5,0,6.6,1.6,8.7,4.4C104.4,65.3,105,68.8,104,72.1z"/>
</svg>
