<?xml version="1.0" encoding="utf-8"?>
<!-- Generator: Adobe Illustrator 25.0.0, SVG Export Plug-In . SVG Version: 6.00 Build 0)  -->
<svg version="1.1" id="Слой_1" xmlns="http://www.w3.org/2000/svg" xmlns:xlink="http://www.w3.org/1999/xlink" x="0px" y="0px"
	 width="145px" height="145px" viewBox="0 0 145 145" style="enable-background:new 0 0 145 145;" xml:space="preserve">
<style type="text/css">
	.st0{fill:#323232;}
	.st1{fill:#3782FF;}
</style>
<path class="st0" d="M72.5,1.5c39.1,0,71,31.9,71,71s-31.9,71-71,71s-71-31.9-71-71S33.4,1.5,72.5,1.5 M72.5,0C32.5,0,0,32.5,0,72.5
	S32.5,145,72.5,145S145,112.5,145,72.5S112.5,0,72.5,0L72.5,0z"/>
<path class="st1" d="M108.9,57.7c-1.6-0.9-3.5-0.8-5.1,0.1L89.2,67v-0.5c0-6.4-5.2-11.7-11.6-11.7h-1.4c1.6-1.5,2.6-3.8,2.6-6.1
	c0-4.7-3.8-8.5-8.5-8.5c-2.6,0-4.9,1.2-6.4,3C62.5,39,58.6,36,54.1,36c-5.8,0-10.6,4.8-10.6,10.6c0,3.4,1.5,6.3,3.8,8.2H45
	c-6.2,0-11.5,5.3-11.5,11.7v20.9c0,6.5,5.2,11.7,11.6,11.7h32.6c5.2,0,9.7-3.6,11.1-8.3l15,9.4c0.8,0.5,1.7,0.8,2.7,0.8
	c0.8,0,1.7-0.2,2.4-0.6c1.6-0.9,2.6-2.5,2.6-4.5V62.2C111.5,60.4,110.5,58.6,108.9,57.7z M70.4,43.2c3,0,5.4,2.4,5.4,5.5
	s-2.4,5.5-5.4,5.5s-5.4-2.4-5.4-5.5S67.5,43.2,70.4,43.2z M46.5,46.6c0-4.2,3.3-7.5,7.5-7.5s7.5,3.4,7.5,7.5s-3.3,7.5-7.5,7.5
	S46.5,50.7,46.5,46.6z M62.8,52.4c0.4,0.9,1,1.7,1.7,2.4h-3.8C61.5,54.1,62.2,53.3,62.8,52.4z M77.6,96H45.1c-4.7,0-8.6-3.9-8.6-8.6
	V66.5c0-4.8,3.8-8.6,8.6-8.6h32.6c4.7,0,8.6,3.9,8.6,8.6v20.9C86.2,92.2,82.4,96,77.6,96z M108.5,95.9c0,0.7-0.4,1.4-1,1.8
	c-0.7,0.4-1.4,0.3-2-0.1L89.3,87.5v-0.1V70.6l16.1-10.2c0.6-0.4,1.4-0.4,2-0.1c0.6,0.3,1,1,1,1.8V95.9z"/>
</svg>
