<?xml version="1.0" encoding="utf-8"?>
<!-- Generator: Adobe Illustrator 25.0.0, SVG Export Plug-In . SVG Version: 6.00 Build 0)  -->
<svg version="1.1" id="Слой_1" xmlns="http://www.w3.org/2000/svg" xmlns:xlink="http://www.w3.org/1999/xlink" x="0px" y="0px"
	 width="185px" height="185px" viewBox="0 0 185 185" style="enable-background:new 0 0 185 185;" xml:space="preserve">
<style type="text/css">
	.st0{fill:#9BDCFA;}
	.st1{fill:#1EA0E6;}
</style>
<path class="st0" d="M92.5,0c-123.3,2.2-123.3,182.8,0,185C215.8,182.8,215.8,2.2,92.5,0z M92.5,174.5c-45.2,0-82-36.8-82-82
	s36.8-82,82-82s82,36.8,82,82S137.7,174.5,92.5,174.5z"/>
<path class="st1" d="M92.5,174.5c-45.2,0-82-36.8-82-82s36.8-82,82-82s82,36.8,82,82S137.7,174.5,92.5,174.5 M92.5,27.6
	c-35.8,0-64.9,29.1-64.9,64.9s29.1,64.9,64.9,64.9s64.9-29.1,64.9-64.9S128.3,27.6,92.5,27.6"/>
</svg>
