<?xml version="1.0" encoding="utf-8"?>
<!-- Generator: Adobe Illustrator 25.0.0, SVG Export Plug-In . SVG Version: 6.00 Build 0)  -->
<svg version="1.1" id="Слой_1" xmlns="http://www.w3.org/2000/svg" xmlns:xlink="http://www.w3.org/1999/xlink" x="0px" y="0px"
	 width="175px" height="57.2px" viewBox="0 0 175 57.2" style="enable-background:new 0 0 175 57.2;" xml:space="preserve">
<style type="text/css">
	.st0{fill:#3782FF;}
	.st1{fill:#37B437;}
	.st2{fill:#FA3C14;}
	.st3{fill:#FABE0A;}
</style>
<g>
	<path class="st0" d="M21.5,0h1.6c5.4,0.1,10.7,2.3,14.5,6.1c-1.4,1.4-2.8,2.8-4.2,4.3c-2.1-1.9-4.7-3.4-7.5-4
		c-4.2-0.9-8.7-0.1-12.2,2.3c-3.8,2.5-6.4,6.7-7,11.2s0.6,9.2,3.6,12.6c2.8,3.4,7,5.5,11.5,5.6c4.1,0.2,8.4-1,11.4-3.9
		c2.3-2,3.4-5.1,3.8-8.1c-4.9,0-9.7,0-14.6,0v-6h20.5c1.1,6.5-0.5,13.8-5.4,18.4c-3.3,3.3-7.8,5.2-12.5,5.6
		c-4.5,0.4-9.1-0.4-13.1-2.6c-4.8-2.6-8.6-6.9-10.5-12c-1.8-4.7-1.8-10-0.1-14.7c1.5-4.3,4.4-8.1,8.1-10.7C12.8,1.7,17.1,0.3,21.5,0
		z"/>
	<path class="st1" d="M139.3,1.6h6.3v41.9c-2.1,0-4.2,0-6.3,0C139.3,29.5,139.3,15.5,139.3,1.6L139.3,1.6z"/>
	<path class="st2" d="M56.8,16.1c3.9-0.7,8.1,0.1,11.3,2.4c2.9,2.1,4.9,5.3,5.5,8.8c0.8,4.1-0.2,8.5-2.8,11.8
		c-2.8,3.6-7.5,5.5-12.1,5.3c-4.2-0.2-8.2-2.3-10.7-5.7c-2.8-3.8-3.5-8.9-1.9-13.3C47.6,20.6,51.9,17,56.8,16.1 M57.7,21.7
		c-1.6,0.4-3.1,1.3-4.1,2.6c-2.8,3.4-2.7,9,0.5,12.1c1.8,1.8,4.5,2.7,7,2.2c2.3-0.4,4.3-2,5.5-4c1.9-3.5,1.4-8.3-1.6-11
		C63,21.8,60.2,21,57.7,21.7L57.7,21.7z"/>
	<path class="st3" d="M87.9,16.1c4.4-0.9,9.3,0.4,12.6,3.5c5.4,4.8,6,13.9,1.4,19.5c-2.8,3.5-7.3,5.5-11.8,5.3
		c-4.3-0.1-8.5-2.2-11-5.7c-2.8-3.8-3.5-9.1-1.8-13.6C78.9,20.4,83.1,16.9,87.9,16.1 M88.8,21.7c-1.6,0.4-3.1,1.3-4.1,2.6
		c-2.8,3.3-2.7,8.8,0.3,12c1.8,1.9,4.6,2.8,7.2,2.3c2.3-0.4,4.3-2,5.5-4c1.9-3.5,1.4-8.3-1.6-11.1C94.1,21.7,91.3,21,88.8,21.7
		L88.8,21.7z"/>
	<path class="st0" d="M114.3,17.8c3.4-2.1,7.9-2.7,11.5-0.9c1.1,0.5,2.1,1.4,3,2.2c0-0.8,0-1.6,0-2.4c2,0,3.9,0,5.9,0v25.9
		c0,3.9-1,8-3.8,10.9c-3.1,3.1-7.8,4.1-12.1,3.5c-4.6-0.7-8.5-4-10.3-8.2c1.8-0.9,3.6-1.5,5.4-2.3c1,2.4,3.1,4.5,5.7,4.9
		c2.6,0.5,5.6-0.2,7.3-2.3c1.8-2.2,1.8-5.3,1.7-8c-1.4,1.3-2.9,2.5-4.8,2.9c-4.1,1.1-8.6-0.3-11.7-3c-3.2-2.8-5.1-7-4.9-11.2
		C107.5,24.9,110.2,20.3,114.3,17.8 M120.4,21.6c-1.8,0.3-3.5,1.3-4.6,2.7c-2.8,3.3-2.8,8.5,0,11.8c1.6,1.9,4.1,3,6.6,2.7
		c2.3-0.2,4.5-1.7,5.6-3.7c1.9-3.4,1.6-8.1-1-11.1C125.4,22,122.8,21.1,120.4,21.6L120.4,21.6z"/>
	<path class="st2" d="M153.1,19.3c3.5-3.3,9-4.4,13.5-2.7c4.3,1.6,7,5.7,8.4,9.9c-6.4,2.6-12.7,5.3-19.1,7.9
		c0.9,1.7,2.2,3.2,4.1,3.8c2.6,0.9,5.6,0.6,7.8-1.1c0.9-0.6,1.5-1.5,2.2-2.3c1.6,1.1,3.2,2.1,4.8,3.2c-2.3,3.4-6.1,5.8-10.3,6.2
		c-4.6,0.6-9.5-1.2-12.4-4.8C147.1,33.8,147.6,24.4,153.1,19.3 M156.2,24.7c-1,1.4-1.4,3.2-1.4,4.9c4.3-1.8,8.5-3.5,12.8-5.3
		c-0.7-1.6-2.4-2.6-4.1-2.9C160.7,20.9,157.8,22.4,156.2,24.7z"/>
</g>
</svg>
