<?xml version="1.0" encoding="utf-8"?>
<!-- Generator: Adobe Illustrator 25.0.0, SVG Export Plug-In . SVG Version: 6.00 Build 0)  -->
<svg version="1.1" id="Слой_1" xmlns="http://www.w3.org/2000/svg" xmlns:xlink="http://www.w3.org/1999/xlink" x="0px" y="0px"
	 width="140px" height="56px" viewBox="0 0 140 56" style="enable-background:new 0 0 140 56;" xml:space="preserve">
<style type="text/css">
	.st0{fill:#C3C8D2;}
</style>
<path class="st0" d="M0,0v3.8h27.3V0H0z M31.1,0v3.8h38.8c0,0-4-3.8-9.2-3.8H31.1z M77.6,0v3.8h23.5L99.7,0H77.6z M117.9,0l-1.4,3.8
	h23.3V0H117.9z M0,7.5v3.8h27.3V7.5H0z M31.1,7.5v3.8h43.3c0,0-0.5-2.9-1.4-3.8H31.1L31.1,7.5z M77.6,7.5v3.8h26.1l-1.3-3.8H77.6
	L77.6,7.5z M115.1,7.5l-1.3,3.8h26V7.5H115.1z M7.8,14.9v3.8h11.8v-3.8H7.8L7.8,14.9z M38.9,14.9v3.8h11.8v-3.8H38.9L38.9,14.9z
	 M62.2,14.9v3.8H74c0,0,0.7-2,0.7-3.8H62.2L62.2,14.9z M85.4,14.9v3.8h20.9l-1.4-3.8H85.4L85.4,14.9z M112.5,14.9l-1.4,3.8h21v-3.8
	H112.5L112.5,14.9z M7.8,22.4v3.8h11.8v-3.8H7.8L7.8,22.4z M38.9,22.4v3.8H69c0,0,2.5-2,3.3-3.8H38.9z M85.4,22.4v3.8h11.8v-2.1
	l0.7,2.1h21.6l0.8-2.1v2.1h11.8v-3.8H110l-1.2,3.2l-1.2-3.2H85.4z M7.8,29.8v3.8h11.8v-3.8H7.8z M38.9,29.8v3.8h33.5
	c-0.8-1.9-3.3-3.8-3.3-3.8H38.9z M85.4,29.8v3.8h11.8v-3.8H85.4z M99.3,29.8l1.4,3.8H117l1.4-3.8H99.3z M120.4,29.8v3.8h11.8v-3.8
	H120.4z M7.8,37.3v3.8h11.8v-3.8H7.8z M38.9,37.3v3.8h11.8v-3.8H38.9z M62.2,37.3v3.8h12.6c0-1.8-0.7-3.8-0.7-3.8H62.2L62.2,37.3z
	 M85.4,37.3v3.8h11.8v-3.8H85.4z M102,37.3l1.4,3.8h10.9l1.4-3.8H102z M120.4,37.3v3.8h11.8v-3.8H120.4z M0.2,44.7v3.8h27.3v-3.8
	H0.2z M31.1,44.7v3.8h42c0.9-0.9,1.4-3.8,1.4-3.8H31.1L31.1,44.7z M77.8,44.7v3.8h19.4v-3.8H77.8z M104.7,44.7l1.4,3.8h5.5l1.3-3.8
	H104.7z M120.4,44.7v3.8H140v-3.8H120.4z M0.2,52.2V56h27.3v-3.8H0.2z M31.1,52.2V56h29.6c5.3,0,9.2-3.8,9.2-3.8H31.1z M77.8,52.2
	V56h19.4v-3.8H77.8z M107.4,52.2l1.4,3.8h0.2l1.4-3.8H107.4z M120.4,52.2V56H140v-3.8H120.4z"/>
</svg>
