<?xml version="1.0" encoding="utf-8"?>
<!-- Generator: Adobe Illustrator 25.0.0, SVG Export Plug-In . SVG Version: 6.00 Build 0)  -->
<svg version="1.1" id="Слой_1" xmlns="http://www.w3.org/2000/svg" xmlns:xlink="http://www.w3.org/1999/xlink" x="0px" y="0px"
	 width="200.2px" height="42.6px" viewBox="0 0 200.2 42.6" style="enable-background:new 0 0 200.2 42.6;" xml:space="preserve">
<style type="text/css">
	.st0{fill:#C3C8D2;}
</style>
<g>
	<path class="st0" d="M200,19.3v-3.5h-4.4v-5.5h-0.1l-4.1,1.3h-0.1v4.1h-6.5v-2.3c0-1.1,0.2-1.9,0.7-2.4s1.1-0.8,2-0.8
		c0.6,0,1.3,0.1,1.9,0.4l0.2,0.1V7h-0.1c-0.6-0.2-1.4-0.3-2.4-0.3c-1.3,0-2.4,0.3-3.4,0.8c-1,0.6-1.8,1.3-2.4,2.3
		c-0.6,1-0.8,2.1-0.8,3.4v2.5h-3v3.6h3v14.8h4.4V19.3h6.5v9.4c0,3.9,1.8,5.8,5.4,5.8c0.6,0,1.2-0.1,1.9-0.2c0.6-0.1,1.1-0.3,1.4-0.4
		h0.1v-3.6l-0.2,0.1c-0.2,0.2-0.5,0.3-0.9,0.4c-0.3,0.1-0.6,0.1-0.9,0.1c-0.8,0-1.5-0.2-1.9-0.7s-0.6-1.2-0.6-2.4v-8.5H200L200,19.3
		z M167.6,31c-1.6,0-2.8-0.5-3.7-1.6c-0.9-1-1.3-2.5-1.3-4.4s0.4-3.5,1.3-4.5c0.9-1.1,2.1-1.6,3.7-1.6c1.5,0,2.7,0.5,3.6,1.5
		c0.9,1,1.3,2.5,1.3,4.5s-0.4,3.5-1.2,4.5C170.5,30.4,169.2,31,167.6,31 M167.8,15.3c-3,0-5.4,0.9-7.1,2.6c-1.7,1.7-2.6,4.2-2.6,7.2
		c0,2.9,0.8,5.2,2.5,6.9s3.9,2.5,6.8,2.5c2.9,0,5.3-0.9,7-2.7s2.6-4.2,2.6-7.1c0-2.9-0.8-5.2-2.4-6.9
		C172.9,16.2,170.7,15.3,167.8,15.3 M151.1,15.3c-2.1,0-3.8,0.5-5.1,1.6c-1.3,1-2,2.4-2,4.1c0,0.9,0.1,1.6,0.4,2.3
		c0.3,0.7,0.7,1.2,1.3,1.7s1.5,1,2.7,1.5c1,0.4,1.7,0.8,2.2,1c0.5,0.3,0.8,0.5,1,0.8s0.3,0.6,0.3,1c0,1.2-0.9,1.8-2.8,1.8
		c-0.7,0-1.5-0.1-2.4-0.4c-0.9-0.3-1.7-0.7-2.4-1.2l-0.2-0.1v4.2h0.1c0.6,0.3,1.4,0.5,2.3,0.7c0.9,0.2,1.7,0.3,2.5,0.3
		c2.2,0,4-0.5,5.3-1.6s2-2.5,2-4.2c0-1.2-0.4-2.3-1.1-3.2c-0.7-0.8-1.9-1.6-3.6-2.3c-1.4-0.5-2.2-1-2.6-1.3
		c-0.3-0.3-0.5-0.8-0.5-1.4c0-0.5,0.2-1,0.7-1.3c0.4-0.3,1.1-0.5,1.9-0.5c0.7,0,1.5,0.1,2.2,0.3s1.4,0.5,1.9,0.9l0.2,0.1v-4h-0.1
		c-0.5-0.2-1.2-0.4-2-0.5C152.4,15.4,151.7,15.3,151.1,15.3 M132.7,31c-1.6,0-2.8-0.5-3.7-1.6c-0.9-1-1.3-2.5-1.3-4.4
		s0.4-3.5,1.3-4.5c0.9-1.1,2.1-1.6,3.7-1.6c1.5,0,2.7,0.5,3.6,1.5c0.9,1,1.3,2.5,1.3,4.5s-0.4,3.5-1.2,4.5
		C135.5,30.4,134.3,31,132.7,31 M132.9,15.3c-3,0-5.4,0.9-7.1,2.6c-1.7,1.7-2.6,4.2-2.6,7.2c0,2.9,0.8,5.2,2.5,6.9s3.9,2.5,6.8,2.5
		c2.9,0,5.3-0.9,7-2.7s2.6-4.2,2.6-7.1c0-2.9-0.8-5.2-2.4-6.9C138,16.2,135.7,15.3,132.9,15.3 M116.5,18.9v-3.2h-4.3V34h4.3v-9.4
		c0-1.6,0.4-2.9,1.1-3.9c0.7-1,1.6-1.5,2.8-1.5c0.4,0,0.8,0.1,1.3,0.2c0.5,0.1,0.8,0.3,1,0.4l0.2,0.1v-4.3h-0.1
		c-0.4-0.2-1-0.3-1.7-0.3c-1.1,0-2.1,0.3-2.9,1C117.5,17.1,117,17.9,116.5,18.9L116.5,18.9z M104.5,15.3c-2,0-3.7,0.4-5.2,1.3
		c-1.5,0.8-2.7,2-3.5,3.6c-0.8,1.5-1.2,3.3-1.2,5.3c0,1.7,0.4,3.3,1.2,4.7s1.9,2.5,3.2,3.3c1.4,0.8,3,1.1,4.7,1.1
		c2,0,3.8-0.4,5.2-1.2h0.1v-4l-0.2,0.1c-0.6,0.5-1.3,0.8-2.1,1.1s-1.5,0.4-2.1,0.4c-1.7,0-3.1-0.5-4-1.6c-1-1-1.5-2.5-1.5-4.4
		s0.5-3.4,1.6-4.5c1-1.1,2.4-1.7,4-1.7c1.4,0,2.8,0.5,4.1,1.4l0.2,0.1v-4h-0.1c-0.5-0.3-1.2-0.5-2-0.7
		C106.1,15.4,105.3,15.3,104.5,15.3 M91.6,15.7h-4.3V34h4.3V15.7L91.6,15.7z M89.5,7.9c-0.7,0-1.3,0.2-1.8,0.7s-0.8,1.1-0.8,1.8
		c0,0.7,0.3,1.3,0.8,1.8s1.1,0.7,1.8,0.7s1.3-0.2,1.9-0.7c0.5-0.5,0.8-1.1,0.8-1.8c0-0.7-0.3-1.3-0.8-1.8
		C90.9,8.2,90.3,7.9,89.5,7.9 M78.8,14.4v19.7h4.4V8.5h-6.1l-7.7,19l-7.5-19h-6.3v25.6h4.1V14.4h0.1l7.9,19.7h3.1l7.8-19.7H78.8
		L78.8,14.4z"/>
	<path class="st0" d="M20.3,20.2H0V0h20.3V20.2z"/>
	<path class="st0" d="M42.7,20.2H22.4V0h20.3V20.2L42.7,20.2z"/>
	<path class="st0" d="M20.3,42.6H0V22.4h20.3V42.6z"/>
	<path class="st0" d="M42.7,42.6H22.4V22.4h20.3V42.6L42.7,42.6z"/>
</g>
</svg>
