<?xml version="1.0" encoding="utf-8"?>
<!-- Generator: Adobe Illustrator 25.0.0, SVG Export Plug-In . SVG Version: 6.00 Build 0)  -->
<svg version="1.1" id="Слой_1" xmlns="http://www.w3.org/2000/svg" xmlns:xlink="http://www.w3.org/1999/xlink" x="0px" y="0px"
	 width="190px" height="27.8px" viewBox="0 0 190 27.8" style="enable-background:new 0 0 190 27.8;" xml:space="preserve">
<style type="text/css">
	.st0{fill-rule:evenodd;clip-rule:evenodd;fill:#1428A0;}
</style>
<path class="st0" d="M104.2,12.9c0,0-1.8-1.1-3-1.6c0,0-3.5-1.6-4.2-2.4c0,0-1.4-1.3-0.6-2.8c0,0,0.3-1,1.8-1c0,0,1.9,0.1,1.9,1.7V9
	h6.8V5.8c0,0,0.5-5.3-8-5.5c0,0-6.7-0.4-8.6,3.2c0,0-0.8,0.8-0.8,3.6v2c0,0-0.1,2.3,1.1,3.8c0,0,0.7,1,2.3,2.1c0,0,3.4,1.8,5.4,2.9
	c0,0,2,1.2,1.8,3c0,0-0.2,1.9-2.1,1.8c0,0-1.8-0.1-1.8-2v-2.2H89v3.2c0,0-0.2,6.1,9.1,6.1c0,0,8.9,0.2,9.3-6.3v-2.6
	C107.3,18.9,107.6,15,104.2,12.9L104.2,12.9z M69.4,1l-2.3,14.3h-0.5L64.4,1.2H53l-0.5,25.7h6.7l0.1-19.5h0.5l3.6,19.5h7.1L74,7.4
	h0.5l0.2,19.5h6.8l-0.7-26L69.4,1L69.4,1z M29.4,1.1l-4.5,25.8h7.2l2.7-20h0.6l2.6,20h7.2L40.7,1.1H29.4z M181.2,12.6v3.8h1.9v4.1
	c0,2-1.7,2-1.7,2c-2.1,0-2-1.9-2-1.9V6.4c0-1.5,1.8-1.5,1.8-1.5c1.8,0,1.8,1.7,1.8,1.7v2.2h6.8c0.2-4.2-0.6-5.2-0.6-5.2
	c-1.7-3.8-8.1-3.6-8.1-3.6c-9.8,0-8.7,7.5-8.7,7.5v13.7c0.2,7.1,9.9,6.4,10.1,6.3c4.3-0.5,5.6-1.8,5.6-1.8c1.2-0.9,1.5-2.1,1.5-2.1
	c0.3-0.7,0.4-3,0.4-3v-8H181.2L181.2,12.6z M158.7,16.8h-0.3L151.5,1h-8.3v26h6.7l-0.4-15.8h0.3l7.2,15.7h8v-26h-6.8L158.7,16.8
	L158.7,16.8z M126.7,20.4c0,0,0.1,2.1-1.9,2.1c0,0-2.1,0.1-2.1-2.1V0.9h-7.4v19.4c0,0-0.8,7.3,9.6,7.3c0,0,9,0.1,9-7V1h-7.2
	L126.7,20.4L126.7,20.4z M15.3,12.9c0,0-1.8-1.1-3-1.6c0,0-3.5-1.6-4.2-2.4c0,0-1.4-1.3-0.6-2.8c0,0,0.3-1,1.8-1
	c0,0,1.9,0.1,1.9,1.7V9H18V5.8c0,0,0.5-5.3-8-5.5c0,0-0.6,0-1.6,0c0,0-5.2,0.3-7,3.1c0,0,0,0,0,0.1c0,0-0.8,0.8-0.8,3.6v2
	c0,0-0.1,2.3,1.1,3.8c0,0,0.7,1,2.3,2.1c0,0,3.4,1.8,5.4,2.9c0,0,2.1,1.2,1.8,3c0,0-0.2,1.9-2.1,1.8c0,0-1.8-0.1-1.8-2v-2.2H0v3.2
	c0,0-0.2,6.1,9.1,6.1c0,0,8.9,0.2,9.3-6.3v-2.6C18.4,18.9,18.7,15,15.3,12.9L15.3,12.9z"/>
</svg>
