<?xml version="1.0" encoding="utf-8"?>
<!-- Generator: Adobe Illustrator 25.0.0, SVG Export Plug-In . SVG Version: 6.00 Build 0)  -->
<svg version="1.1" id="Слой_1" xmlns="http://www.w3.org/2000/svg" xmlns:xlink="http://www.w3.org/1999/xlink" x="0px" y="0px"
	 width="145px" height="145px" viewBox="0 0 145 145" style="enable-background:new 0 0 145 145;" xml:space="preserve">
<style type="text/css">
	.st0{fill:#323232;}
	.st1{fill:#3782FF;}
</style>
<path class="st0" d="M72.5,1.5c39.1,0,71,31.9,71,71s-31.9,71-71,71s-71-31.9-71-71S33.4,1.5,72.5,1.5 M72.5,0C32.5,0,0,32.5,0,72.5
	S32.5,145,72.5,145S145,112.5,145,72.5S112.5,0,72.5,0L72.5,0z"/>
<path class="st1" d="M93.5,40h-42C45.2,40,40,45.2,40,51.6v41.9c0,6.4,5.2,11.6,11.6,11.6h41.9c6.4,0,11.6-5.2,11.6-11.6V51.6
	C105.1,45.2,99.9,40,93.5,40z M56.2,102h-4.7c-4.7,0-8.4-3.9-8.4-8.4v-42c0-4.6,3.9-8.4,8.4-8.4h4.7V102z M71,102H59.4V43.1h11.6
	L71,102L71,102z M85.7,102H74.2V74.2h11.6V102z M85.7,71H74.2V43.1h11.6V71z M102,93.5c0,4.7-3.9,8.4-8.4,8.4h-4.7V74.2H102V93.5z
	 M102,71H88.9V43.1h4.7c4.7,0,8.4,3.9,8.4,8.4V71z"/>
</svg>
