<?xml version="1.0" encoding="utf-8"?>
<!-- Generator: Adobe Illustrator 25.0.0, SVG Export Plug-In . SVG Version: 6.00 Build 0)  -->
<svg version="1.1" id="Слой_1" xmlns="http://www.w3.org/2000/svg" xmlns:xlink="http://www.w3.org/1999/xlink" x="0px" y="0px"
	 width="145px" height="145px" viewBox="0 0 145 145" style="enable-background:new 0 0 145 145;" xml:space="preserve">
<style type="text/css">
	.st0{fill:#323232;}
	.st1{fill:#3782FF;}
</style>
<path class="st0" d="M72.5,1.5c39.1,0,71,31.9,71,71s-31.9,71-71,71s-71-31.9-71-71S33.4,1.5,72.5,1.5 M72.5,0C32.5,0,0,32.5,0,72.5
	S32.5,145,72.5,145S145,112.5,145,72.5S112.5,0,72.5,0L72.5,0z"/>
<path class="st1" d="M48.3,94.7h48.4c6.2,0,11.3-5,11.3-11.3V54.8c0.1-6.2-5-11.3-11.3-11.3H48.3c-6.2,0-11.3,5-11.3,11.3v28.5
	C37,89.5,42,94.7,48.3,94.7z M40,54.8c0-4.5,3.7-8.3,8.3-8.3h48.4c4.5,0,8.3,3.7,8.3,8.3v26.3H40V54.8z M105,84.1
	c-0.4,4.2-3.9,7.6-8.3,7.6H48.3c-4.3,0-7.9-3.3-8.3-7.6H105z M83.6,56.4c-0.6-0.6-1.5-0.6-2.1-0.1L60.3,76.4
	c-0.6,0.6-0.6,1.5-0.1,2.1c0.3,0.3,0.7,0.5,1.1,0.5c0.4,0,0.7-0.1,1-0.4l21.2-20.1C84.1,57.9,84.1,57,83.6,56.4z M85.6,65.4L75,75.4
	c-0.6,0.6-0.6,1.5-0.1,2.1c0.3,0.3,0.7,0.5,1.1,0.5c0.4,0,0.7-0.1,1-0.4l10.7-10.1c0.6-0.6,0.6-1.5,0.1-2.1
	C87.3,64.7,86.2,64.7,85.6,65.4z M107,98.5H38c-0.8,0-1.5,0.7-1.5,1.5s0.7,1.5,1.5,1.5h69c0.8,0,1.5-0.7,1.5-1.5
	S107.8,98.5,107,98.5z"/>
</svg>
