<?xml version="1.0" encoding="utf-8"?>
<!-- Generator: Adobe Illustrator 25.0.0, SVG Export Plug-In . SVG Version: 6.00 Build 0)  -->
<svg version="1.1" id="Слой_1" xmlns="http://www.w3.org/2000/svg" xmlns:xlink="http://www.w3.org/1999/xlink" x="0px" y="0px"
	 width="170px" height="245px" viewBox="0 0 170 245" style="enable-background:new 0 0 170 245;" xml:space="preserve">
<style type="text/css">
	.st0{fill:#FFFFFF;}
	.st1{fill:#3782FF;}
</style>
<rect class="st0" width="170" height="245"/>
<g>
	<rect x="66.8" y="79" class="st1" width="83.8" height="5.1"/>
	<rect x="66.8" y="90" class="st1" width="74.5" height="5.1"/>
	<rect x="66.8" y="101.1" class="st1" width="68.5" height="5.1"/>
	<rect x="19.4" y="75" class="st1" width="35.3" height="35.3"/>
	<rect x="66.8" y="130" class="st1" width="74.8" height="5.1"/>
	<rect x="66.8" y="141" class="st1" width="80.5" height="5.1"/>
	<rect x="66.8" y="152" class="st1" width="74.5" height="5.1"/>
	<rect x="19.4" y="125.9" class="st1" width="35.3" height="35.3"/>
	<rect x="66.8" y="180.9" class="st1" width="74.8" height="5.1"/>
	<rect x="66.8" y="191.9" class="st1" width="74.5" height="5.1"/>
	<rect x="66.8" y="202.9" class="st1" width="79.5" height="5.1"/>
	<rect x="19.4" y="176.8" class="st1" width="35.3" height="35.3"/>
	<path class="st1" d="M5.1,4.9V54h159.8V4.9H5.1z M22.1,13h-13V8h13V13z M40.1,13h-13V8h13V13z M120,39.9H51.1v-5H120V39.9z M162,13
		h-13V8h13V13z"/>
</g>
</svg>
