<?xml version="1.0" encoding="utf-8"?>
<!-- Generator: Adobe Illustrator 25.0.0, SVG Export Plug-In . SVG Version: 6.00 Build 0)  -->
<svg version="1.1" id="Слой_1" xmlns="http://www.w3.org/2000/svg" xmlns:xlink="http://www.w3.org/1999/xlink" x="0px" y="0px"
	 width="57.9px" height="67px" viewBox="0 0 57.9 67" style="enable-background:new 0 0 57.9 67;" xml:space="preserve">
<style type="text/css">
	.st0{fill:#3782FF;}
</style>
<path class="st0" d="M24.9,8.9c-1.6,0-2.9,1.3-2.9,2.9s1.3,2.9,2.9,2.9s2.9-1.3,2.9-2.9S26.5,8.9,24.9,8.9z M14.9,8.9
	c-1.6,0-2.9,1.3-2.9,2.9s1.3,2.9,2.9,2.9s2.9-1.3,2.9-2.9S16.5,8.9,14.9,8.9z M34.8,8.9c-1.6,0-2.9,1.3-2.9,2.9s1.3,2.9,2.9,2.9
	s2.9-1.3,2.9-2.9S36.4,8.9,34.8,8.9z M12,45.2l8.1,6.4c0.3,0.2,0.6,0.3,0.9,0.3c0.4,0,0.9-0.2,1.2-0.6c0.5-0.7,0.4-1.6-0.3-2.1
	l-6.4-5l6.6-4c0.7-0.4,0.9-1.4,0.5-2.1s-1.4-0.9-2.1-0.5l-8.4,5.2c-0.4,0.3-0.7,0.7-0.7,1.2S11.6,44.9,12,45.2z M27.3,55.5
	c0.1,0,0.3,0.1,0.5,0.1c0.6,0,1.2-0.4,1.4-1l7-22.6c0.2-0.8-0.2-1.6-1-1.9s-1.6,0.2-1.9,1l-7,22.6C26.1,54.5,26.5,55.3,27.3,55.5z
	 M47.7,0H10.3C4.6,0,0,4.7,0,10.4v46.2C0,62.4,4.6,67,10.3,67h37.3c5.7,0,10.3-4.7,10.3-10.4V10.4C58.1,4.7,53.4,0,47.7,0z M3,10.4
	C3,6.4,6.3,3,10.3,3h37.3c4,0,7.3,3.3,7.3,7.4v7.7h-52L3,10.4L3,10.4z M55.1,56.6c0,4-3.3,7.4-7.3,7.4H10.3c-4,0-7.3-3.3-7.3-7.4
	V21.2h52.1V56.6z M39.4,35.9l6.6,4l-6.3,5c-0.7,0.5-0.8,1.5-0.3,2.1c0.3,0.4,0.7,0.6,1.2,0.6c0.3,0,0.6-0.1,0.9-0.3l8.1-6.4
	c0.4-0.3,0.6-0.8,0.6-1.3s-0.3-0.9-0.7-1.2l-8.4-5.2c-0.7-0.4-1.6-0.2-2.1,0.5C38.4,34.5,38.7,35.5,39.4,35.9z"/>
</svg>
