<?xml version="1.0" encoding="utf-8"?>
<!-- Generator: Adobe Illustrator 25.0.0, SVG Export Plug-In . SVG Version: 6.00 Build 0)  -->
<svg version="1.1" id="Слой_1" xmlns="http://www.w3.org/2000/svg" xmlns:xlink="http://www.w3.org/1999/xlink" x="0px" y="0px"
	 width="70px" height="66.1px" viewBox="0 0 70 66.1" style="enable-background:new 0 0 70 66.1;" xml:space="preserve">
<style type="text/css">
	.st0{fill:#3782FF;}
</style>
<path class="st0" d="M67.3,21.3c-2.6-3.6-6.6-5.7-11.1-5.7h-2.1v-4.2C54.1,5.1,49,0,42.8,0H27.3C21.1,0,16,5.1,16,11.4v4.2h-2.2
	c-4.5,0-8.4,2.1-11.1,5.7C0,24.9-0.7,29.4,0.6,33.7l7.3,23.4c1.7,5.4,6.5,9,12.2,9h29.7c5.6,0,10.5-3.6,12.2-9l7.3-23.5
	C70.7,29.4,69.9,24.9,67.3,21.3z M19,11.5c0-4.6,3.8-8.4,8.3-8.4h15.5c4.6,0,8.3,3.8,8.3,8.4v4.2H19V11.5z M66.5,32.7l-7.3,23.5
	c-1.3,4.2-5.1,6.9-9.3,6.9H20.1c-4.3,0-8-2.8-9.3-6.9L3.5,32.7c-1-3.3-0.5-6.9,1.6-9.7s5.3-4.4,8.7-4.4h3.7h35h3.6
	c3.5,0,6.6,1.6,8.7,4.4C66.9,25.9,67.5,29.4,66.5,32.7z"/>
</svg>
