<?xml version="1.0" encoding="utf-8"?>
<!-- Generator: Adobe Illustrator 25.0.0, SVG Export Plug-In . SVG Version: 6.00 Build 0)  -->
<svg version="1.1" id="Слой_1" xmlns="http://www.w3.org/2000/svg" xmlns:xlink="http://www.w3.org/1999/xlink" x="0px" y="0px"
	 width="78px" height="65px" viewBox="0 0 78 65" style="enable-background:new 0 0 78 65;" xml:space="preserve">
<style type="text/css">
	.st0{fill:#3782FF;}
</style>
<path class="st0" d="M75.4,21.7c-1.6-0.9-3.5-0.8-5.1,0.1L55.7,31v-0.5c0-6.4-5.2-11.7-11.6-11.7h-1.4c1.6-1.5,2.6-3.8,2.6-6.1
	c0-4.7-3.8-8.5-8.5-8.5c-2.6,0-4.9,1.2-6.4,3C29,3,25.1,0,20.6,0C14.8,0,10,4.8,10,10.6c0,3.4,1.5,6.3,3.8,8.2h-2.3
	C5.3,18.8,0,24.1,0,30.5v20.9c0,6.5,5.2,11.7,11.6,11.7h32.6c5.2,0,9.7-3.6,11.1-8.3l15,9.4C71.1,64.7,72,65,73,65
	c0.8,0,1.7-0.2,2.4-0.6c1.6-0.9,2.6-2.5,2.6-4.5V26.2C78,24.4,77,22.6,75.4,21.7z M36.9,7.2c3,0,5.4,2.4,5.4,5.5s-2.4,5.5-5.4,5.5
	s-5.4-2.4-5.4-5.5S34,7.2,36.9,7.2z M13,10.6c0-4.2,3.3-7.5,7.5-7.5S28,6.5,28,10.6s-3.3,7.5-7.5,7.5S13,14.7,13,10.6z M29.3,16.4
	c0.4,0.9,1,1.7,1.7,2.4h-3.8C28,18.1,28.7,17.3,29.3,16.4z M44.1,60H11.6C6.9,60,3,56.1,3,51.4V30.5c0-4.8,3.8-8.6,8.6-8.6h32.6
	c4.7,0,8.6,3.9,8.6,8.6v20.9C52.7,56.2,48.9,60,44.1,60z M75,59.9c0,0.7-0.4,1.4-1,1.8c-0.7,0.4-1.4,0.3-2-0.1L55.8,51.5v-0.1V34.6
	l16.1-10.2c0.6-0.4,1.4-0.4,2-0.1c0.6,0.3,1,1,1,1.8L75,59.9L75,59.9z"/>
</svg>
