<?xml version="1.0" encoding="utf-8"?>
<!-- Generator: Adobe Illustrator 25.0.0, SVG Export Plug-In . SVG Version: 6.00 Build 0)  -->
<svg version="1.1" id="Слой_1" xmlns="http://www.w3.org/2000/svg" xmlns:xlink="http://www.w3.org/1999/xlink" x="0px" y="0px"
	 width="65.1px" height="65.1px" viewBox="0 0 65.1 65.1" style="enable-background:new 0 0 65.1 65.1;" xml:space="preserve">
<style type="text/css">
	.st0{fill:#3782FF;}
</style>
<path class="st0" d="M53.5,0h-42C5.2,0,0,5.2,0,11.6v41.9c0,6.4,5.2,11.6,11.6,11.6h41.9c6.4,0,11.6-5.2,11.6-11.6V11.6
	C65.1,5.2,59.9,0,53.5,0z M16.2,62h-4.7c-4.7,0-8.4-3.9-8.4-8.4v-42C3.1,7,7,3.2,11.5,3.2h4.7V62z M31,62H19.4V3.1H31V62L31,62z
	 M45.7,62H34.2V34.2h11.6L45.7,62L45.7,62z M45.7,31H34.2V3.1h11.6L45.7,31L45.7,31z M62,53.5c0,4.7-3.9,8.4-8.4,8.4h-4.7V34.2H62
	V53.5z M62,31H48.9V3.1h4.7c4.7,0,8.4,3.9,8.4,8.4V31z"/>
</svg>
