<?xml version="1.0" encoding="utf-8"?>
<!-- Generator: Adobe Illustrator 25.0.0, SVG Export Plug-In . SVG Version: 6.00 Build 0)  -->
<svg version="1.1" id="Слой_1" xmlns="http://www.w3.org/2000/svg" xmlns:xlink="http://www.w3.org/1999/xlink" x="0px" y="0px"
	 width="72px" height="58px" viewBox="0 0 72 58" style="enable-background:new 0 0 72 58;" xml:space="preserve">
<style type="text/css">
	.st0{fill:#3782FF;}
</style>
<path class="st0" d="M11.8,51.2h48.4c6.2,0,11.3-5,11.3-11.3V11.3C71.6,5.1,66.5,0,60.2,0H11.8C5.6,0,0.5,5,0.5,11.3v28.5
	C0.5,46,5.5,51.2,11.8,51.2z M3.5,11.3C3.5,6.8,7.2,3,11.8,3h48.4c4.5,0,8.3,3.7,8.3,8.3v26.3h-65V11.3z M68.5,40.6
	c-0.4,4.2-3.9,7.6-8.3,7.6H11.8c-4.3,0-7.9-3.3-8.3-7.6H68.5z M47.1,12.9c-0.6-0.6-1.5-0.6-2.1-0.1L23.8,32.9
	c-0.6,0.6-0.6,1.5-0.1,2.1c0.3,0.3,0.7,0.5,1.1,0.5c0.4,0,0.7-0.1,1-0.4L47,15C47.6,14.4,47.6,13.5,47.1,12.9z M49.1,21.9l-10.6,10
	c-0.6,0.6-0.6,1.5-0.1,2.1c0.3,0.3,0.7,0.5,1.1,0.5s0.7-0.1,1-0.4L51.2,24c0.6-0.6,0.6-1.5,0.1-2.1C50.8,21.2,49.7,21.2,49.1,21.9z
	 M70.5,55h-69C0.7,55,0,55.7,0,56.5S0.7,58,1.5,58h69c0.8,0,1.5-0.7,1.5-1.5S71.3,55,70.5,55z"/>
</svg>
